<svg fill="none" height="24" viewBox="0 0 24 24" width="24" xmlns="http://www.w3.org/2000/svg"><g stroke="#000" stroke-linecap="round" stroke-linejoin="round" stroke-width="2"><path d="m6.23319 5.83404.44526-2.22627c.18697-.93485 1.0078-1.60777 1.96116-1.60777h6.72079c.9534 0 1.7742.67292 1.9612 1.60777l.4452 2.22627c.1424.71201.6823 1.27824 1.3867 1.45435 1.6729.41822 2.8465 1.9213 2.8465 3.64571v7.0659c0 2.2091-1.7909 4-4 4h-12c-2.20914 0-4-1.7909-4-4v-7.0659c0-1.72441 1.17357-3.22749 2.84645-3.64571.70443-.17611 1.24434-.74234 1.38674-1.45435z"/><circle cx="12" cy="14" r="4"/><path d="m11 6h2"/></g></svg>